<svg width="115" height="29" viewBox="0 0 115 29" fill="none" xmlns="http://www.w3.org/2000/svg">
<path d="M0.812 28V1.02H10.616C12.82 1.02 14.7453 1.37467 16.392 2.084C18.064 2.79333 19.4573 3.756 20.572 4.972C21.6867 6.188 22.5227 7.61933 23.08 9.266C23.6373 10.8873 23.916 12.6227 23.916 14.472C23.916 16.524 23.5993 18.386 22.966 20.058C22.358 21.7047 21.4713 23.1233 20.306 24.314C19.1407 25.4793 17.7347 26.3913 16.088 27.05C14.4667 27.6833 12.6427 28 10.616 28H0.812ZM18.634 14.472C18.634 13.18 18.4567 11.9893 18.102 10.9C17.7473 9.81067 17.228 8.87333 16.544 8.088C15.86 7.30267 15.0113 6.69467 13.998 6.264C13.01 5.83333 11.8827 5.618 10.616 5.618H6.056V23.402H10.616C11.908 23.402 13.048 23.174 14.036 22.718C15.0493 22.262 15.8853 21.6413 16.544 20.856C17.228 20.0453 17.7473 19.0953 18.102 18.006C18.4567 16.9167 18.634 15.7387 18.634 14.472ZM32.9532 28.38C31.9905 28.38 31.0912 28.228 30.2552 27.924C29.4192 27.5947 28.6972 27.1513 28.0892 26.594C27.4812 26.0113 26.9998 25.34 26.6452 24.58C26.3158 23.82 26.1512 22.984 26.1512 22.072C26.1512 21.1347 26.3538 20.2733 26.7592 19.488C27.1898 18.6773 27.7725 17.9933 28.5072 17.436C29.2672 16.8787 30.1665 16.448 31.2052 16.144C32.2438 15.8147 33.3838 15.65 34.6252 15.65C35.5118 15.65 36.3732 15.726 37.2092 15.878C38.0705 16.03 38.8305 16.2453 39.4892 16.524V15.384C39.4892 14.0667 39.1092 13.0533 38.3492 12.344C37.6145 11.6347 36.5125 11.28 35.0432 11.28C33.9792 11.28 32.9405 11.47 31.9272 11.85C30.9138 12.23 29.8752 12.7873 28.8112 13.522L27.2532 10.292C29.8118 8.59467 32.5732 7.746 35.5372 7.746C38.3998 7.746 40.6165 8.45533 42.1872 9.874C43.7832 11.2673 44.5812 13.294 44.5812 15.954V22.148C44.5812 22.68 44.6698 23.06 44.8472 23.288C45.0498 23.516 45.3665 23.6427 45.7972 23.668V28C44.9358 28.1773 44.1885 28.266 43.5552 28.266C42.5925 28.266 41.8452 28.0507 41.3132 27.62C40.8065 27.1893 40.4898 26.6193 40.3632 25.91L40.2492 24.808C39.3625 25.9733 38.2858 26.86 37.0192 27.468C35.7525 28.076 34.3972 28.38 32.9532 28.38ZM34.3972 24.656C35.2585 24.656 36.0692 24.504 36.8292 24.2C37.6145 23.896 38.2225 23.4907 38.6532 22.984C39.2105 22.5533 39.4892 22.072 39.4892 21.54V19.26C38.8812 19.032 38.2225 18.8547 37.5132 18.728C36.8038 18.576 36.1198 18.5 35.4612 18.5C34.1438 18.5 33.0672 18.804 32.2312 19.412C31.3952 19.9947 30.9772 20.742 30.9772 21.654C30.9772 22.5153 31.3065 23.2373 31.9652 23.82C32.6238 24.3773 33.4345 24.656 34.3972 24.656ZM67.8455 28H62.7535V16.828C62.7535 15.232 62.4748 14.0667 61.9175 13.332C61.3602 12.5973 60.5875 12.23 59.5995 12.23C59.0928 12.23 58.5735 12.3313 58.0415 12.534C57.5095 12.7367 57.0028 13.028 56.5215 13.408C56.0655 13.7627 55.6475 14.1933 55.2675 14.7C54.8875 15.2067 54.6088 15.764 54.4315 16.372V28H49.3395V8.088H53.9375V11.774C54.6722 10.5073 55.7362 9.51933 57.1295 8.81C58.5228 8.10067 60.0935 7.746 61.8415 7.746C63.0828 7.746 64.0962 7.974 64.8815 8.43C65.6668 8.886 66.2748 9.48133 66.7055 10.216C67.1362 10.9507 67.4275 11.7867 67.5795 12.724C67.7568 13.6613 67.8455 14.6113 67.8455 15.574V28ZM72.2731 28V8.088H77.3651V28H72.2731ZM72.2731 5.314V0.259999H77.3651V5.314H72.2731ZM91.1926 28.38C89.5966 28.38 88.1526 28.114 86.8606 27.582C85.5686 27.0247 84.4666 26.2773 83.5546 25.34C82.6426 24.4027 81.9333 23.3133 81.4266 22.072C80.9453 20.8307 80.7046 19.526 80.7046 18.158C80.7046 16.7393 80.9453 15.4093 81.4266 14.168C81.908 12.9013 82.6046 11.7993 83.5166 10.862C84.4286 9.89933 85.5306 9.13933 86.8226 8.582C88.14 8.02466 89.6093 7.746 91.2306 7.746C92.852 7.746 94.296 8.02466 95.5626 8.582C96.8546 9.13933 97.944 9.88667 98.8306 10.824C99.7426 11.7613 100.427 12.8507 100.883 14.092C101.364 15.3333 101.605 16.6253 101.605 17.968C101.605 18.2973 101.592 18.614 101.567 18.918C101.567 19.222 101.541 19.4753 101.491 19.678H86.1006C86.1766 20.4633 86.3666 21.16 86.6706 21.768C86.9746 22.376 87.3673 22.8953 87.8486 23.326C88.33 23.7567 88.8746 24.086 89.4826 24.314C90.0906 24.542 90.724 24.656 91.3826 24.656C92.396 24.656 93.346 24.4153 94.2326 23.934C95.1446 23.4273 95.7653 22.7687 96.0946 21.958L100.465 23.174C99.73 24.694 98.552 25.948 96.9306 26.936C95.3346 27.8987 93.422 28.38 91.1926 28.38ZM96.3606 16.372C96.234 14.8773 95.6766 13.6867 94.6886 12.8C93.726 11.888 92.548 11.432 91.1546 11.432C90.4706 11.432 89.8246 11.5587 89.2166 11.812C88.634 12.04 88.1146 12.3693 87.6586 12.8C87.2026 13.2307 86.8226 13.75 86.5186 14.358C86.24 14.966 86.0753 15.6373 86.0246 16.372H96.3606ZM104.669 0.259999H109.761V21.616C109.761 22.3507 109.938 22.9207 110.293 23.326C110.647 23.7313 111.154 23.934 111.813 23.934C112.117 23.934 112.446 23.8833 112.801 23.782C113.181 23.6807 113.535 23.554 113.865 23.402L114.549 27.278C113.865 27.6073 113.067 27.8607 112.155 28.038C111.243 28.2153 110.419 28.304 109.685 28.304C108.089 28.304 106.847 27.886 105.961 27.05C105.099 26.1887 104.669 24.9727 104.669 23.402V0.259999Z" fill="#2D2D2D"/>
</svg>
