<svg width="74" height="65" viewBox="0 0 74 65" fill="none" xmlns="http://www.w3.org/2000/svg">
        <path id="iconsCard" fill-rule="evenodd" clip-rule="evenodd" d="M69.9934 36.9143C66.9311 37.8395 62.0271 39.2508 59.2111 40.0567L58.6477 42.9404C61.2778 43.6554 64.6793 45.441 66.9842 51.2457L61.1789 59.1983C61.1789 59.1983 64.2951 59.4458 68.1193 59.5539C71.4758 59.6478 70.9787 65 70.9787 65H34.4833C34.4833 65 30.9225 45.0384 47.4118 31.46C46.7576 23.4656 47.6766 17.7772 50.6932 14.3821L50.7419 5.25973L58.2265 10.8535C65.1543 10.5157 69.9167 17.9435 70.5657 23.283L61.7955 26.8503L60.7711 32.0832L67.3441 31.8163L69.4616 27.5676C74.6104 29.6029 76.1445 35.0557 69.9934 36.9143ZM30.196 64.7309C21.203 63.6528 14.9929 58.7741 14.9929 48.8637C14.9929 37.873 21.5792 13.5269 1.14394 16.6925L0 14.2091C3.19506 7.28162 9.74966 0 20.7236 0C32.8526 0 38.8799 7.60741 38.8799 21.6793C38.8799 37.9111 27.7473 39.0256 30.196 64.7309Z" fill="#9A9A9A"/>

    <g id="logoDan">
        <path d="M0.812 28V1.02H10.616C12.82 1.02 14.7453 1.37467 16.392 2.084C18.064 2.79333 19.4573 3.756 20.572 4.972C21.6867 6.188 22.5227 7.61933 23.08 9.266C23.6373 10.8873 23.916 12.6227 23.916 14.472C23.916 16.524 23.5993 18.386 22.966 20.058C22.358 21.7047 21.4713 23.1233 20.306 24.314C19.1407 25.4793 17.7347 26.3913 16.088 27.05C14.4667 27.6833 12.6427 28 10.616 28H0.812ZM18.634 14.472C18.634 13.18 18.4567 11.9893 18.102 10.9C17.7473 9.81067 17.228 8.87333 16.544 8.088C15.86 7.30267 15.0113 6.69467 13.998 6.264C13.01 5.83333 11.8827 5.618 10.616 5.618H6.056V23.402H10.616C11.908 23.402 13.048 23.174 14.036 22.718C15.0493 22.262 15.8853 21.6413 16.544 20.856C17.228 20.0453 17.7473 19.0953 18.102 18.006C18.4567 16.9167 18.634 15.7387 18.634 14.472ZM32.9532 28.38C31.9905 28.38 31.0912 28.228 30.2552 27.924C29.4192 27.5947 28.6972 27.1513 28.0892 26.594C27.4812 26.0113 26.9998 25.34 26.6452 24.58C26.3158 23.82 26.1512 22.984 26.1512 22.072C26.1512 21.1347 26.3538 20.2733 26.7592 19.488C27.1898 18.6773 27.7725 17.9933 28.5072 17.436C29.2672 16.8787 30.1665 16.448 31.2052 16.144C32.2438 15.8147 33.3838 15.65 34.6252 15.65C35.5118 15.65 36.3732 15.726 37.2092 15.878C38.0705 16.03 38.8305 16.2453 39.4892 16.524V15.384C39.4892 14.0667 39.1092 13.0533 38.3492 12.344C37.6145 11.6347 36.5125 11.28 35.0432 11.28C33.9792 11.28 32.9405 11.47 31.9272 11.85C30.9138 12.23 29.8752 12.7873 28.8112 13.522L27.2532 10.292C29.8118 8.59467 32.5732 7.746 35.5372 7.746C38.3998 7.746 40.6165 8.45533 42.1872 9.874C43.7832 11.2673 44.5812 13.294 44.5812 15.954V22.148C44.5812 22.68 44.6698 23.06 44.8472 23.288C45.0498 23.516 45.3665 23.6427 45.7972 23.668V28C44.9358 28.1773 44.1885 28.266 43.5552 28.266C42.5925 28.266 41.8452 28.0507 41.3132 27.62C40.8065 27.1893 40.4898 26.6193 40.3632 25.91L40.2492 24.808C39.3625 25.9733 38.2858 26.86 37.0192 27.468C35.7525 28.076 34.3972 28.38 32.9532 28.38ZM34.3972 24.656C35.2585 24.656 36.0692 24.504 36.8292 24.2C37.6145 23.896 38.2225 23.4907 38.6532 22.984C39.2105 22.5533 39.4892 22.072 39.4892 21.54V19.26C38.8812 19.032 38.2225 18.8547 37.5132 18.728C36.8038 18.576 36.1198 18.5 35.4612 18.5C34.1438 18.5 33.0672 18.804 32.2312 19.412C31.3952 19.9947 30.9772 20.742 30.9772 21.654C30.9772 22.5153 31.3065 23.2373 31.9652 23.82C32.6238 24.3773 33.4345 24.656 34.3972 24.656ZM67.8455 28H62.7535V16.828C62.7535 15.232 62.4748 14.0667 61.9175 13.332C61.3602 12.5973 60.5875 12.23 59.5995 12.23C59.0928 12.23 58.5735 12.3313 58.0415 12.534C57.5095 12.7367 57.0028 13.028 56.5215 13.408C56.0655 13.7627 55.6475 14.1933 55.2675 14.7C54.8875 15.2067 54.6088 15.764 54.4315 16.372V28H49.3395V8.088H53.9375V11.774C54.6722 10.5073 55.7362 9.51933 57.1295 8.81C58.5228 8.10067 60.0935 7.746 61.8415 7.746C63.0828 7.746 64.0962 7.974 64.8815 8.43C65.6668 8.886 66.2748 9.48133 66.7055 10.216C67.1362 10.9507 67.4275 11.7867 67.5795 12.724C67.7568 13.6613 67.8455 14.6113 67.8455 15.574V28ZM72.2731 28V8.088H77.3651V28H72.2731ZM72.2731 5.314V0.259999H77.3651V5.314H72.2731ZM91.1926 28.38C89.5966 28.38 88.1526 28.114 86.8606 27.582C85.5686 27.0247 84.4666 26.2773 83.5546 25.34C82.6426 24.4027 81.9333 23.3133 81.4266 22.072C80.9453 20.8307 80.7046 19.526 80.7046 18.158C80.7046 16.7393 80.9453 15.4093 81.4266 14.168C81.908 12.9013 82.6046 11.7993 83.5166 10.862C84.4286 9.89933 85.5306 9.13933 86.8226 8.582C88.14 8.02466 89.6093 7.746 91.2306 7.746C92.852 7.746 94.296 8.02466 95.5626 8.582C96.8546 9.13933 97.944 9.88667 98.8306 10.824C99.7426 11.7613 100.427 12.8507 100.883 14.092C101.364 15.3333 101.605 16.6253 101.605 17.968C101.605 18.2973 101.592 18.614 101.567 18.918C101.567 19.222 101.541 19.4753 101.491 19.678H86.1006C86.1766 20.4633 86.3666 21.16 86.6706 21.768C86.9746 22.376 87.3673 22.8953 87.8486 23.326C88.33 23.7567 88.8746 24.086 89.4826 24.314C90.0906 24.542 90.724 24.656 91.3826 24.656C92.396 24.656 93.346 24.4153 94.2326 23.934C95.1446 23.4273 95.7653 22.7687 96.0946 21.958L100.465 23.174C99.73 24.694 98.552 25.948 96.9306 26.936C95.3346 27.8987 93.422 28.38 91.1926 28.38ZM96.3606 16.372C96.234 14.8773 95.6766 13.6867 94.6886 12.8C93.726 11.888 92.548 11.432 91.1546 11.432C90.4706 11.432 89.8246 11.5587 89.2166 11.812C88.634 12.04 88.1146 12.3693 87.6586 12.8C87.2026 13.2307 86.8226 13.75 86.5186 14.358C86.24 14.966 86.0753 15.6373 86.0246 16.372H96.3606ZM104.669 0.259999H109.761V21.616C109.761 22.3507 109.938 22.9207 110.293 23.326C110.647 23.7313 111.154 23.934 111.813 23.934C112.117 23.934 112.446 23.8833 112.801 23.782C113.181 23.6807 113.535 23.554 113.865 23.402L114.549 27.278C113.865 27.6073 113.067 27.8607 112.155 28.038C111.243 28.2153 110.419 28.304 109.685 28.304C108.089 28.304 106.847 27.886 105.961 27.05C105.099 26.1887 104.669 24.9727 104.669 23.402V0.259999Z" fill="#2D2D2D"/>
    </g>
    <g id="vector2">
        <path fill-rule="evenodd" clip-rule="evenodd" d="M86.8021 41.5694C86.1227 45.579 83.8041 48.8399 80.2752 50.7519C79.7944 51.0127 79.2891 51.2264 78.771 51.4118C79.4305 60.0609 65.5415 63.1977 58.0602 61.1332L60.8389 70.7525L53.6898 71L41.1691 53.2846C36.9536 54.4614 31.9682 55.0309 28.7556 49.9232C28.4513 49.4392 28.1859 48.9545 27.957 48.4667C27.1259 48.634 26.2939 48.7189 25.4699 48.7189C23.0717 48.7189 19.1321 48.0166 17.0931 46.6308C15.3918 45.4745 14.118 43.9709 13.4291 42.384C9.13184 42.963 5.51317 41.9677 3.07927 39.4955C0.0605353 36.4286 -0.80162 31.3507 0.772509 25.9106C2.87506 18.6457 9.18032 10.4585 21.7201 7.4089C22.7626 6.12607 24.0356 4.97521 25.5756 4.00032C33.4486 -0.987267 46.2419 -1.41776 55.933 3.31137C59.4356 2.62007 63.2744 2.93901 67.1402 4.37425C74.1169 6.96348 79.1881 12.3666 80.1409 17.8586C82.0297 18.857 83.5553 20.2938 84.5748 22.1894C86.6639 26.0717 86.9921 29.9634 85.5514 33.1057C86.8307 35.548 87.3067 38.5921 86.8021 41.5694ZM81.6491 37.4782C78.0137 39.5151 74.4435 37.4789 74.4435 37.4789L75.0204 33.6713C77.4718 33.9038 79.4686 33.1497 80.5088 31.6076C81.6705 29.888 81.4901 27.3294 80.0161 24.587C78.3633 21.5154 74.7955 21.0268 72.8153 21.0087C72.774 21.0087 72.7319 21.0079 72.6898 21.0079C67.733 21.0079 62.6785 23.7951 60.6363 27.4331L57.6629 26.0245C58.2954 24.0331 59.2974 22.3544 60.5672 20.9718C58.4408 19.2097 57.0566 16.0714 57.7415 12.9904L60.6744 12.7233C60.6506 14.0462 62.0992 17.1099 65.0838 17.7478C67.412 16.6928 70.0723 16.1688 72.8622 16.1884C73.2452 16.1916 73.6107 16.2277 73.9826 16.2513C72.3958 13.3627 69.4446 10.4648 65.4644 8.93997C56.6553 5.5636 50.7195 10.8049 49.3631 12.6062C46.0941 16.9489 48.1903 21.0425 49.7835 23.7087L47.1597 26.0403C45.0229 24.0787 43.2351 21.4942 42.8219 18.4792C39.4622 19.4768 34.9496 19.2372 32.422 14.9936L34.8082 13.3784C37.4876 15.3612 41.734 15.1892 43.7547 12.7406C44.1997 11.768 44.783 10.7727 45.5673 9.75304C46.7544 8.20861 48.1378 6.92263 49.6651 5.89432C43.0746 4.11736 33.7664 4.4096 28.1461 7.9698C24.9057 10.0217 23.33 12.8364 23.33 16.5749C23.33 19.3786 25.5573 23.8077 28.5498 24.5037L26.7961 27.8667C24.7317 27.3867 23.0821 26.3498 21.8131 25.0135L19.2282 28.2658L16.664 27.0136L19.1885 20.4816C18.7729 19.1799 18.5615 17.8413 18.5615 16.5749C18.5615 15.4704 18.691 14.4193 18.8976 13.4028C10.9849 16.6488 7.02294 22.0103 5.58469 26.979C4.48653 30.7741 4.91245 34.196 6.72496 36.0366C8.16162 37.4954 10.3659 37.838 12.4382 37.7052L17.96 33.4238L19.7868 34.9486L18.1316 40.3094C18.9994 43.0353 21.8361 44.443 27.013 43.432C27.195 41.5081 27.9952 39.5371 29.5105 37.4915C30.669 35.9282 31.9897 34.852 33.4279 34.1073L36.1455 26.8722L38.8671 26.752L38.5739 32.687C43.1413 32.2203 48.2554 33.145 53.0088 32.4348L53.8885 35.5559C46.9094 38.7437 39.765 33.5424 33.2889 40.4052C30.9623 42.8711 31.8467 45.0141 33.2968 47.1752C35.3684 50.2641 39.2612 48.4062 43.2414 47.2043C49.2773 45.3818 53.658 44.0974 61.9077 44.7282C59.9434 41.0329 60.1341 36.5622 62.7714 31.6429L66.6507 33.1622C63.9284 39.3745 66.4815 42.9677 68.2447 44.5561C70.9703 47.0103 75.0721 47.7487 77.7928 46.275C80.6423 44.7298 81.4695 42.1342 81.7087 40.7249C81.8914 39.6377 81.8557 38.5175 81.6491 37.4782Z" fill="#9A9A9A"/>
    </g>
    <g id="vector3">
        <path fill-rule="evenodd" clip-rule="evenodd" d="M55.292 50.4676L35.4283 54.9521C33.5661 57.9614 38.7389 60.1859 39.5263 59.4306L40.2793 60.6933C37.5894 63.9445 32.1521 65.7914 27.8874 64.3163C18.6223 73.9578 7.28797 80 7.28797 80L0 30.683C0 30.683 12.8747 33.2674 24.594 39.7109C28.6174 37.2916 34.4225 36.8727 38.9631 39.9056L38.7102 41.5224C35.003 41.4633 32.7959 44.0832 33.8304 46.0304L33.9684 46.1602L54.3667 44.449L67.293 37.2975L68 51.6241L55.292 50.4676ZM11.6217 66.6765C8.79385 67.1367 9.25366 71.6861 12.5183 71.155C15.2714 70.7302 14.5012 66.2281 11.6217 66.6765ZM17.7659 48.3847L13.0931 49.4232L15.7025 61.2716L19.4557 60.3157L17.7659 48.3847ZM26.9621 46.4847L22.2433 47.2577L24.6228 59.0176L28.4219 58.0617L26.9621 46.4847ZM37.9745 33.0432L38.7906 24.2632L36.2559 23.6023L37.4859 17.3536L32.1406 17.2179C32.1406 17.2179 31.267 24.0566 31.0314 26.3461C30.2382 34.6423 19.5706 32.0283 22.7491 24.8237L28.7381 25.6498L29.6232 11.8012L44.1014 12.6331L41.8024 19.761L44.4635 20.4101L37.9745 33.0432ZM24.8987 5.72356C24.8987 5.72356 23.9733 13.1937 23.8239 14.7514C23.0134 23.266 11.432 20.9883 14.8633 13.1996L21.3409 14.0906L22.341 0L31.8992 0.513351C32.8419 3.99469 28.9105 5.72356 24.8987 5.72356Z" fill="#969696"/>
    </g>

    <g id="vector4">
        <path fill-rule="evenodd" clip-rule="evenodd" d="M78.7828 29.0481C83.087 26.6443 86.4522 32.7741 81.6471 35.4584C74.7025 39.4195 68.4308 44.5068 63.0761 50.5226C58.2475 46.396 53.3641 40.6267 51.165 36.6363L50.5076 15.859C50.5076 15.859 57.1284 5.67461 59.7031 2.39735C63.1074 -1.92158 68.2569 1.70824 64.8526 6.83648C62.2622 10.7468 56.0875 20.6747 56.0875 20.6747L57.2771 21.9007C57.2771 21.9007 68.0143 9.92944 70.6516 7.08487C74.3846 3.07844 79.6984 7.83809 75.5115 12.3573C72.6316 15.4663 61.2918 28.0946 61.2918 28.0946L62.3483 29.3286C62.3483 29.3286 73.2342 19.8494 76.1845 17.4135C80.4106 13.9279 84.5426 18.8317 80.0427 23.0225C76.9671 25.867 65.956 35.186 65.956 35.186L66.6134 36.3959C66.6134 36.3959 76.1376 30.4985 78.7828 29.0481ZM45.9608 67.59L35.1688 54.3688L33.5175 55.6909L41.0226 69.7535C38.2243 70.7351 35.2646 71.1435 32.3123 70.9554C28.4933 60.0259 20.9334 46.1156 2.02595 33.0065C-2.50527 29.8574 1.41552 24.1042 5.47718 26.9007C7.98149 28.6154 16.8561 35.4023 16.8561 35.4023L17.6387 34.2565C17.6387 34.2565 7.56671 23.9119 4.77285 20.7628C0.68771 16.1715 5.26588 11.7003 9.13972 15.5785C11.8475 18.2949 21.8021 28.7997 21.8021 28.7997L23.0073 27.686C23.0073 27.686 12.904 14 10.3293 10.6186C6.59629 5.70666 12.3327 1.47587 15.6666 5.81083C18.0143 8.9038 27.5933 21.8366 27.5933 21.8366L28.8846 20.7308C28.8846 20.7308 23.6412 10.2419 21.4264 6.09128C18.523 0.730673 24.0012 -2.37832 26.9672 2.26113C29.5811 6.32365 32.2028 11.3157 34.9966 16.6843L35.4192 29.9696L37.9392 30.0978C38.1583 26.5241 38.4792 21.4039 38.667 19.3365C39.1913 13.6474 40.7017 10.8669 46.3286 10.0897L47.4164 38.4873C51.4076 44.4248 55.8841 49.7854 61.057 53.7117C57.1677 59.4931 51.9939 64.2468 45.9608 67.582V67.59Z" fill="#9A9A9A"/>
    </g>
    <g id="vector5">
        <path fill-rule="evenodd" clip-rule="evenodd" d="M40.363 76.5849L30.3066 73.7354L20.3982 77C-10.8279 56.9302 -5.04142 17.6312 29.8236 29.952C67.6845 17.0634 68.4349 57.5744 40.363 76.5849ZM31.0484 35.9263L31.0329 67.6753L39.7311 70.0642C60.8974 55.1195 60.9883 23.5755 31.0484 35.9263ZM36.081 55.4223C36.081 55.4223 36.081 49.4806 36.081 46.0152C36.081 40.734 44.2426 40.2048 44.2426 46.0152C44.2426 51.7922 36.081 55.4223 36.081 55.4223ZM27.6372 24.3929L9.91941 5.53425L15.4514 0L25.0456 13.9257C26.5465 6.24618 35.6395 0.744531 44.4659 0.0694762C48.6242 12.3586 43.8254 26.7123 27.6372 24.3929Z" fill="#969696"/>
    </g>
    <g id="vector6">
        <path fill-rule="evenodd" clip-rule="evenodd" d="M56.1553 35.2423C57.467 33.0657 57.4814 30.2288 57.4814 27.4225C57.4814 14.2173 43.1985 16.8515 43.1985 16.8515C43.1985 16.8515 43.5194 5.93897 31.826 5.93897C21.0336 5.93897 19.8184 16.71 19.8184 16.71C19.8184 16.71 5.40849 15.3751 5.40849 28.6464C5.40849 30.6933 5.88524 32.7419 6.85567 34.5456L2.32023 36.6247C0.755344 33.9658 0 30.9035 0 27.9285C0 19.7638 5.66761 11.2219 16.0739 11.2219C18.2637 4.35062 24.2853 0 31.8336 0C40.7352 0 45.5424 5.52451 47.2868 11.216C56.5356 11.216 63 19.0052 63 27.6175C63 31.2748 62.0702 35.1177 59.9566 38.1944L56.1553 35.2423ZM25.4877 49.5078C25.5513 34.0938 32.2401 35.7406 33.1182 25.6392L35.7391 25.2536C40.7352 32.9436 42.1256 40.2769 38.4666 49.8943C43.3475 48.2687 44.2714 40.4981 57.0199 41.3982L58.1699 41.85C58.1699 41.85 54.6684 57.687 36.0397 60.7281L34.0505 72L23.6637 70.2133L26.7977 60.8484C11.6807 58.7261 4.55492 41.1033 4.55492 41.1033L6.51356 39.1538C12.6732 44.1817 19.13 40.7261 25.4877 49.5078Z" fill="#9A9A9A"/>
    </g>
    <g id="vector7">
        <path fill-rule="evenodd" clip-rule="evenodd" d="M34.5 63C15.4458 63 0 47.521 0 28.4271C0 27.2847 0.0560836 26.1549 0.164301 25.041L21.9168 39.4093L23.5219 39.73L68.1801 20.91C68.7156 23.331 69 25.8454 69 28.4271C69.0008 47.521 53.5549 63 34.5 63ZM21.9176 33.7147L1.06637 19.8674C1.58613 17.8216 2.28994 15.8496 3.15568 13.9677L21.1063 25.5802H22.7312L62.8142 8.67213C64.2771 10.7733 65.5141 13.0454 66.4873 15.4529L23.7162 33.8406L21.9176 33.7147ZM21.1055 19.8856L5.46932 9.74328C6.61705 7.95724 7.92356 6.28362 9.37067 4.74299L21.927 13.0604L54.1324 0C56.1553 1.40524 58.0227 3.02028 59.698 4.81662L22.6435 20.2181L21.1055 19.8856Z" fill="#969696"/>
    </g>
    <g id="vector8">
        <path fill-rule="evenodd" clip-rule="evenodd" d="M57.6052 49.6066C50.8288 49.6066 43.97 44.9408 43.97 36.0239C43.97 30.4226 39.6974 27.4926 35.4775 27.4926C33.3375 27.4926 31.3885 28.2587 29.9892 29.6506C28.3357 31.2963 27.4615 33.8132 27.4615 36.9302C27.4615 52.1728 35.2215 61.1539 51.8807 65.1947C53.428 65.5702 54.382 67.1467 54.0124 68.7147C53.6955 70.055 52.5153 70.9571 51.2131 70.9571C50.9909 70.9571 50.7654 70.9312 50.5407 70.877C31.4041 66.2345 21.7008 54.8132 21.7008 36.931C21.7008 30.9667 24.0145 27.4133 25.9553 25.4814C28.4377 23.0112 31.8206 21.6509 35.4783 21.6509C44.7363 21.6509 49.7316 29.0565 49.7316 36.0239C49.7316 41.3715 53.6865 43.7649 57.606 43.7649C59.8588 43.7649 62.0358 42.9638 63.5774 41.5668C65.3191 39.9896 66.2393 37.6804 66.2393 34.8906C66.2393 16.9475 50.1143 5.84167 35.1746 5.84167C25.3092 5.84167 16.8809 10.2021 11.4428 18.12C5.10343 27.3515 3.9931 40.1924 8.47312 52.4699C9.02458 53.982 8.26241 55.6636 6.77099 56.2227C5.27792 56.7827 3.62107 56.0099 3.0696 54.4961C-2.06312 40.4277 -0.700099 25.5807 6.71667 14.7819C13.1663 5.38769 23.5379 0 35.1738 0C45.6928 0 55.2742 3.93645 62.1535 11.0841C68.4114 17.5851 72 26.2625 72 34.8906C72 40.5762 69.5069 44.0287 67.4163 45.923C64.7931 48.2989 61.309 49.6066 57.6052 49.6066ZM34.5993 10.5667C47.3496 9.78313 60.5855 19.8183 60.5855 35.3012C60.5855 36.9143 59.2958 38.222 57.7048 38.222C56.1138 38.222 54.8248 36.9143 54.8248 35.3012C54.8248 23.0304 44.3594 15.4571 34.5993 16.4093C25.5997 17.2863 16.6685 23.3784 16.2636 36.4353C15.8125 50.9602 21.1173 60.8752 31.5399 67.6157C32.8807 68.4836 33.2741 70.2895 32.4181 71.6489C31.8691 72.5227 30.9382 73 29.9868 73C29.4567 73 28.9209 72.8523 28.4402 72.5418C16.3697 64.734 10.0666 52.918 10.5012 36.4362C10.9481 19.492 22.8877 11.2878 34.5993 10.5667ZM33.0667 36.4403C33.0667 34.8264 34.3565 33.5195 35.9483 33.5195C37.5393 33.5195 38.8291 34.8264 38.8291 36.4403C38.8291 41.9999 40.6958 46.5798 44.2268 49.6842C48.5949 53.5247 55.303 54.9159 63.6268 53.7066C65.1981 53.4813 66.6615 54.5879 66.887 56.1843C67.1117 57.7816 66.0187 59.2604 64.4433 59.4891C62.2309 59.8103 60.1024 59.9706 58.0686 59.9706C50.8831 59.9706 44.8697 57.9811 40.4522 54.0972C35.6899 49.9112 33.0667 43.6398 33.0667 36.4403Z" fill="#9A9A9A"/>
    </g>
    <g id="vector9">
        <path fill-rule="evenodd" clip-rule="evenodd" d="M28.2143 56.2901C18.9759 55.1578 21.0143 42.034 29.6871 43.0979C38.3269 44.1558 36.6514 57.3237 28.2143 56.2901ZM0 64.411C1.06124 60.7648 2.27842 55.8226 5.7489 54.6115C15.5123 38.5107 39.3864 0 39.3864 0L44.3105 0.984277C44.3105 0.984277 48.2861 16.261 52.3405 31.4424L46.1558 30.8286C43.1488 19.2882 40.4849 9.13553 40.4849 9.13553C40.4849 9.13553 38.3286 12.7117 35.1882 17.9187C43.2554 25.3264 34.9205 40.0205 24.2223 36.1102C19.6395 43.7169 15.2628 50.986 12.9064 54.9154C20.4564 62.0269 46.3152 64.8768 53.7179 60.1631C53.3532 58.7001 52.8784 56.8268 52.3292 54.6799C51.1164 55.0443 49.7484 55.1733 48.2306 54.9872C34.5324 53.3087 37.5558 33.8473 50.4155 35.4237C58.7001 36.4391 60.5809 44.96 57.4977 50.4424C58.7504 54.9439 59.7735 58.4785 60.3479 60.1882C64.6344 62.6675 64.5045 69.9505 65 71.9728C50.9578 81.0226 14.2631 77.4681 0 64.411Z" fill="#9A9A9A"/>
    </g>
    <g id="vector10">
        <path fill-rule="evenodd" clip-rule="evenodd" d="M51.4264 30.4935C48.2385 34.7232 57.0746 59.6809 42.1638 71L37.4434 67.9466C42.6383 35.4993 13.3579 36.8441 18.8596 67.9417L14.5632 70.9992C-0.61617 58.7549 7.12694 33.5614 4.08634 30.0455C-1.58793 23.4826 -2.65002 13.6646 9.41145 1.65849C13.8861 -2.79561 20.467 4.05891 27.4613 4.05891C34.4557 4.05891 42.4731 -3.16179 47.3156 1.65849C58.2295 12.5215 57.9747 21.8032 51.4264 30.4935ZM44.4817 7.57569C41.3809 4.48909 36.7557 7.18277 32.1166 8.72526C33.9438 10.6728 35.495 12.9533 36.2958 14.572L32.5683 16.0019C30.7021 13.1494 25.985 10.049 22.7027 8.61508C18.5918 7.13092 14.8741 4.818 12.1045 7.57488C7.66816 11.9909 5.37387 15.6608 5.37387 19.2723C5.37387 24.8582 9.96976 27.8792 10.5094 33.0656C23.4303 38.995 29.9827 25.9065 44.734 32.394C44.734 26.5984 50.3016 24.1291 50.3016 19.1192C50.3 15.3084 48.4916 11.5672 44.4817 7.57569Z" fill="#9A9A9A"/>
    </g>
    <g id="vector11">
        <path fill-rule="evenodd" clip-rule="evenodd" d="M49.8818 27.1543C49.3273 27.1543 48.7913 27.1289 48.2703 27.0843L50.3173 23.3055C62.3024 22.7133 62.1912 3.81844 49.5247 3.81844C44.0051 3.81844 40.7449 7.3836 39.8811 11.4652L51.8326 11.4037L52.9959 13.6338L29.7748 46.6244L30.6444 62.9163C48.2018 63.8445 46.9909 72 27.6273 72C6.45119 72 6.13045 63.8643 23.8005 62.9191L24.5639 46.7864L0 14.2613L1.60656 11.6633L35.9809 11.4858C36.8975 5.46129 41.5154 1.38252e-08 49.576 1.38252e-08C67.4799 -0.000707499 67.3672 27.1543 49.8818 27.1543ZM5.79617 15.5582C5.79617 15.5582 20.3571 34.6568 22.2003 37.1522C24.0699 39.6837 30.3793 39.4389 32.0984 37.1331C33.6779 35.0148 47.0871 15.2228 47.0871 15.2228L5.79617 15.5582ZM30.6159 34.2535C29.1854 36.3704 25.0378 36.4305 23.139 33.9089C21.6508 31.9314 13.0756 20.44 13.0756 20.44C24.628 15.1033 27.144 25.5844 39.5297 20.953C39.5297 20.953 31.7314 32.6043 30.6159 34.2535Z" fill="#9A9A9A"/>
    </g>
    <g id="vector">
        <path fill-rule="evenodd" clip-rule="evenodd" d="M72.0725 30.1638C70.6593 31.0236 68.9975 32.0202 67.2572 33.0624C67.3193 33.8863 67.3193 34.7137 67.2572 35.5376L78 34.795C78 34.795 76.1223 44.1291 69.763 43.3084L65.0785 42.657C64.6846 43.3354 64.2475 43.9881 63.77 44.6111L73.7604 49.4312C73.7604 49.4312 67.9638 56.0621 63.2466 52.4991C62.0035 51.5611 60.4987 50.4082 58.9482 49.2423C58.1373 49.8129 57.2917 50.3328 56.4162 50.799L62.4746 57.964C62.4746 57.964 54.9572 61.4488 52.2748 56.5962C51.7252 55.6061 51.0906 54.4402 50.4298 53.2221C49.2309 53.5718 48.0146 53.8588 46.7856 54.0819C48.4409 57.443 50.456 61.5465 51.6663 64.0413C53.302 67.4023 51.1691 70.1511 47.0081 73.1213L43.8807 62.4259L42.075 62.9079L43.9985 75.121C42.5264 76.0394 40.9235 76.9904 39.2094 78C37.4429 77.1793 35.7745 76.339 34.2567 75.4792L36.1344 62.5366L34.3221 62.1132L31.1621 73.5316C26.9094 70.5419 24.7438 67.3502 26.4711 64.0022L31.5677 54.1601C30.2168 53.9258 28.8801 53.617 27.5637 53.2351C26.9094 54.4597 26.2552 55.6191 25.7121 56.6157C23.0362 61.4684 15.5123 57.9836 15.5123 57.9836L21.5773 50.8186C20.7039 50.3463 19.8585 49.8243 19.0453 49.2553C17.4947 50.4473 15.9899 51.6002 14.7469 52.5121C10.0297 56.0751 4.22647 49.4442 4.22647 49.4442L14.2235 44.6176C13.7467 43.9941 13.3097 43.3414 12.9149 42.6635C11.2204 42.898 9.60443 43.113 8.22396 43.3149C1.86462 44.1356 0 34.7885 0 34.7885L10.7428 35.5311C10.6807 34.7072 10.6807 33.8798 10.7428 33.0559C8.98289 32.0072 7.32109 31.0106 5.9079 30.1638C-0.713135 26.1449 4.63865 15.9381 4.63865 15.9381L23.1278 32.9191C20.0398 35.8307 21.2501 42.4355 26.687 42.4355C34.3352 42.4355 33.9884 31.5578 26.8113 31.5578C26.3599 31.5557 25.9098 31.6059 25.4701 31.7076L24.8812 29.8316L28.7413 27.7408L28.303 26.4836C28.303 26.4836 24.8943 26.2491 22.8988 28.3075L21.2763 20.2957L37.8812 22.1456L35.6502 25.8192L39.0851 32.9842L42.5199 25.8192L40.3216 22.1456L56.0237 20.0156L55.2713 28.3075C53.6029 26.2101 49.7297 26.4836 49.7297 26.4836L49.2914 27.7408L53.4066 29.9163L52.7524 31.7076C52.3055 31.6091 51.8492 31.5589 51.3915 31.5578C44.1948 31.5578 43.8676 42.4355 51.5093 42.4355C57.005 42.4355 58.2023 35.7004 54.9768 32.8344L73.381 15.899C73.381 15.899 78.6935 26.1319 72.0725 30.1638ZM33.5239 17.4622C25.1495 6.67566 34.9633 4.94304 34.9633 4.94304L39.0131 11.118L43.2461 4.87139C43.2461 4.87139 52.4056 6.63658 45.1565 17.5078L33.5239 17.4622ZM36.1409 1.82952C37.2073 -0.717314 40.8908 -0.391631 42.232 1.49732L39.0131 6.86456L36.1409 1.82952Z" fill="#D8D8D8"/>
    </g>
    <g id="recId">
        <g id="SVGRepo_bgCarrier" stroke-width="0"></g><g id="SVGRepo_tracerCarrier" stroke-linecap="round" stroke-linejoin="round"></g><g id="SVGRepo_iconCarrier"> <path d="M15.825.12a.5.5 0 0 1 .132.584c-1.53 3.43-4.743 8.17-7.095 10.64a6.067 6.067 0 0 1-2.373 1.534c-.018.227-.06.538-.16.868-.201.659-.667 1.479-1.708 1.74a8.118 8.118 0 0 1-3.078.132 3.659 3.659 0 0 1-.562-.135 1.382 1.382 0 0 1-.466-.247.714.714 0 0 1-.204-.288.622.622 0 0 1 .004-.443c.095-.245.316-.38.461-.452.394-.197.625-.453.867-.826.095-.144.184-.297.287-.472l.117-.198c.151-.255.326-.54.546-.848.528-.739 1.201-.925 1.746-.896.126.007.243.025.348.048.062-.172.142-.38.238-.608.261-.619.658-1.419 1.187-2.069 2.176-2.67 6.18-6.206 9.117-8.104a.5.5 0 0 1 .596.04zM4.705 11.912a1.23 1.23 0 0 0-.419-.1c-.246-.013-.573.05-.879.479-.197.275-.355.532-.5.777l-.105.177c-.106.181-.213.362-.32.528a3.39 3.39 0 0 1-.76.861c.69.112 1.736.111 2.657-.12.559-.139.843-.569.993-1.06a3.122 3.122 0 0 0 .126-.75l-.793-.792zm1.44.026c.12-.04.277-.1.458-.183a5.068 5.068 0 0 0 1.535-1.1c1.9-1.996 4.412-5.57 6.052-8.631-2.59 1.927-5.566 4.66-7.302 6.792-.442.543-.795 1.243-1.042 1.826-.121.288-.214.54-.275.72v.001l.575.575zm-4.973 3.04.007-.005a.031.031 0 0 1-.007.004zm3.582-3.043.002.001h-.002z"></path> </g>
    </g>
    <g id="shipId">
        <g id="SVGRepo_bgCarrier" stroke-width="0"></g><g id="SVGRepo_tracerCarrier" stroke-linecap="round" stroke-linejoin="round"></g><g id="SVGRepo_iconCarrier"> <path d="M20.38 3.46L16 2a4 4 0 01-8 0L3.62 3.46a2 2 0 00-1.34 2.23l.58 3.47a1 1 0 00.99.84H6v10c0 1.1.9 2 2 2h8a2 2 0 002-2V10h2.15a1 1 0 00.99-.84l.58-3.47a2 2 0 00-1.34-2.23z"></path> </g>
    </g>
    <g id="shirtId">
        <g id="SVGRepo_bgCarrier" stroke-width="0"></g><g id="SVGRepo_tracerCarrier" stroke-linecap="round" stroke-linejoin="round"></g><g id="SVGRepo_iconCarrier"> <path d="M8.186 1.113a.5.5 0 0 0-.372 0L1.846 3.5l2.404.961L10.404 2l-2.218-.887zm3.564 1.426L5.596 5 8 5.961 14.154 3.5l-2.404-.961zm3.25 1.7-6.5 2.6v7.922l6.5-2.6V4.24zM7.5 14.762V6.838L1 4.239v7.923l6.5 2.6zM7.443.184a1.5 1.5 0 0 1 1.114 0l7.129 2.852A.5.5 0 0 1 16 3.5v8.662a1 1 0 0 1-.629.928l-7.185 2.874a.5.5 0 0 1-.372 0L.63 13.09a1 1 0 0 1-.63-.928V3.5a.5.5 0 0 1 .314-.464L7.443.184z"></path> </g>
    </g>
    <g id="left">
        <g id="SVGRepo_bgCarrier" stroke-width="0"></g><g id="SVGRepo_tracerCarrier" stroke-linecap="round" stroke-linejoin="round"></g><g id="SVGRepo_iconCarrier"> <path d="M7.68473 7.33186C8.07526 6.94134 8.07526 6.30817 7.68473 5.91765C7.29421 5.52712 6.66105 5.52712 6.27052 5.91765L1.60492 10.5832C0.823873 11.3643 0.823872 12.6306 1.60492 13.4117L6.27336 18.0801C6.66388 18.4706 7.29705 18.4706 7.68757 18.0801C8.0781 17.6896 8.0781 17.0564 7.68757 16.6659L4.02154 12.9998L22 12.9998C22.5523 12.9998 23 12.5521 23 11.9998C23 11.4476 22.5523 10.9998 22 10.9998L4.01675 10.9998L7.68473 7.33186Z" fill="#9F9F9F4F"></path> </g>
    </g>
    <g id="right">
        <g id="SVGRepo_bgCarrier" stroke-width="0"></g><g id="SVGRepo_tracerCarrier" stroke-linecap="round" stroke-linejoin="round"></g><g id="SVGRepo_iconCarrier"> <path d="M16.3153 16.6681C15.9247 17.0587 15.9247 17.6918 16.3153 18.0824C16.7058 18.4729 17.339 18.4729 17.7295 18.0824L22.3951 13.4168C23.1761 12.6357 23.1761 11.3694 22.3951 10.5883L17.7266 5.9199C17.3361 5.52938 16.703 5.52938 16.3124 5.91991C15.9219 6.31043 15.9219 6.9436 16.3124 7.33412L19.9785 11.0002L2 11.0002C1.44772 11.0002 1 11.4479 1 12.0002C1 12.5524 1.44772 13.0002 2 13.0002L19.9832 13.0002L16.3153 16.6681Z" fill="#9F9F9F4F"></path> </g>
    </g>
    <g id="twitter">
        <path fill-rule="evenodd" clip-rule="evenodd" d="M24 0C10.7452 0 0 10.7452 0 24C0 37.2548 10.7452 48 24 48C37.2548 48 48 37.2548 48 24C48 10.7452 37.2548 0 24 0ZM23.3316 20.338L23.2812 19.5075C23.1301 17.3551 24.4563 15.3891 26.5548 14.6265C27.327 14.3553 28.6364 14.3214 29.4926 14.5587C29.8283 14.6604 30.4663 14.9993 30.9195 15.3044L31.7421 15.8637L32.6486 15.5756C33.1523 15.423 33.8238 15.1688 34.1259 14.9993C34.4113 14.8468 34.6631 14.762 34.6631 14.8129C34.6631 15.101 34.042 16.084 33.5216 16.6263C32.8165 17.389 33.018 17.4568 34.4449 16.9483C35.3011 16.6602 35.3178 16.6602 35.15 16.9822C35.0492 17.1517 34.5288 17.7449 33.9748 18.2872C33.0347 19.2194 32.9844 19.3211 32.9844 20.1007C32.9844 21.304 32.4136 23.8123 31.8428 25.1851C30.7852 27.7612 28.5189 30.422 26.2526 31.7609C23.063 33.6422 18.8157 34.1167 15.24 33.0151C14.0481 32.6422 12 31.6931 12 31.5237C12 31.4728 12.6211 31.405 13.3766 31.3881C14.9546 31.3542 16.5326 30.9135 17.8756 30.1339L18.7822 29.5916L17.7413 29.2357C16.264 28.7272 14.9378 27.5578 14.6021 26.4562C14.5013 26.1003 14.5349 26.0833 15.475 26.0833L16.4487 26.0664L15.6261 25.6766C14.6524 25.1851 13.7627 24.3546 13.3262 23.5072C13.0072 22.8971 12.6044 21.3548 12.7219 21.2362C12.7554 21.1854 13.108 21.287 13.5109 21.4226C14.6692 21.8463 14.8203 21.7446 14.1488 21.0328C12.8897 19.7448 12.5036 17.8296 13.108 16.0162L13.3934 15.2027L14.5013 16.3043C16.7677 18.5245 19.4369 19.8465 22.4922 20.2363L23.3316 20.338Z" fill="black"/>
    </g>
    <g id="facebook">
      <path d="M48 24C48 10.7438 37.2562 0 24 0C10.7438 0 0 10.7438 0 24C0 35.9813 8.775 45.9094 20.25 47.7094V30.9375H14.1562V24H20.25V18.7125C20.25 12.6984 23.8313 9.375 29.3156 9.375C31.9406 9.375 34.6875 9.84375 34.6875 9.84375V15.75H31.6594C28.6781 15.75 27.75 17.6016 27.75 19.5V24H34.4062L33.3422 30.9375H27.75V47.7094C39.225 45.9094 48 35.9813 48 24Z" fill="black"/>
        </g>
    <g id="instagram">
        <path id="Combined-Shape" fill-rule="evenodd" clip-rule="evenodd" d="M24 0C10.7452 0 0 10.7452 0 24C0 37.2548 10.7452 48 24 48C37.2548 48 48 37.2548 48 24C48 10.7452 37.2548 0 24 0ZM18.7233 11.2773C20.0886 11.2152 20.5249 11.2 24.0012 11.2H23.9972C27.4746 11.2 27.9092 11.2152 29.2746 11.2773C30.6373 11.3397 31.5679 11.5555 32.384 11.872C33.2266 12.1987 33.9386 12.636 34.6506 13.348C35.3627 14.0595 35.8 14.7736 36.128 15.6155C36.4427 16.4294 36.6587 17.3595 36.7227 18.7222C36.784 20.0876 36.8 20.5238 36.8 24.0001C36.8 27.4764 36.784 27.9116 36.7227 29.277C36.6587 30.6391 36.4427 31.5695 36.128 32.3837C35.8 33.2253 35.3627 33.9394 34.6506 34.6509C33.9394 35.3629 33.2264 35.8013 32.3848 36.1283C31.5703 36.4448 30.6391 36.6605 29.2765 36.7229C27.9111 36.7851 27.4762 36.8003 23.9996 36.8003C20.5236 36.8003 20.0876 36.7851 18.7222 36.7229C17.3598 36.6605 16.4294 36.4448 15.615 36.1283C14.7736 35.8013 14.0595 35.3629 13.3483 34.6509C12.6365 33.9394 12.1992 33.2253 11.872 32.3834C11.5557 31.5695 11.34 30.6394 11.2773 29.2767C11.2155 27.9114 11.2 27.4764 11.2 24.0001C11.2 20.5238 11.216 20.0873 11.2771 18.7219C11.3384 17.3598 11.5544 16.4294 11.8717 15.6152C12.1997 14.7736 12.6371 14.0595 13.3491 13.348C14.0606 12.6363 14.7747 12.1989 15.6166 11.872C16.4305 11.5555 17.3606 11.3397 18.7233 11.2773Z" fill="black"/>
        <path id="Combined-Shape_2" fill-rule="evenodd" clip-rule="evenodd" d="M22.8529 13.5067C23.0759 13.5063 23.3157 13.5065 23.5746 13.5066L24.0012 13.5067C27.4188 13.5067 27.8239 13.519 29.1735 13.5803C30.4215 13.6374 31.0989 13.8459 31.5501 14.0211C32.1474 14.2531 32.5733 14.5304 33.021 14.9784C33.469 15.4264 33.7464 15.8531 33.9789 16.4505C34.1541 16.9011 34.3629 17.5785 34.4197 18.8265C34.481 20.1758 34.4944 20.5812 34.4944 23.9972C34.4944 27.4132 34.481 27.8186 34.4197 29.1679C34.3626 30.4159 34.1541 31.0933 33.9789 31.5439C33.7469 32.1413 33.469 32.5666 33.021 33.0144C32.573 33.4624 32.1477 33.7397 31.5501 33.9717C31.0994 34.1477 30.4215 34.3557 29.1735 34.4128C27.8242 34.4741 27.4188 34.4874 24.0012 34.4874C20.5833 34.4874 20.1782 34.4741 18.8289 34.4128C17.5809 34.3552 16.9035 34.1466 16.4521 33.9714C15.8547 33.7394 15.428 33.4621 14.98 33.0141C14.532 32.5661 14.2547 32.1405 14.0222 31.5429C13.847 31.0922 13.6382 30.4149 13.5814 29.1669C13.52 27.8175 13.5078 27.4122 13.5078 23.994C13.5078 20.5758 13.52 20.1726 13.5814 18.8233C13.6384 17.5753 13.847 16.8979 14.0222 16.4467C14.2542 15.8494 14.532 15.4227 14.98 14.9747C15.428 14.5267 15.8547 14.2494 16.4521 14.0168C16.9033 13.8408 17.5809 13.6328 18.8289 13.5755C20.0097 13.5222 20.4673 13.5062 22.8529 13.5035V13.5067ZM30.8338 15.632C29.9858 15.632 29.2978 16.3193 29.2978 17.1675C29.2978 18.0155 29.9858 18.7035 30.8338 18.7035C31.6818 18.7035 32.3698 18.0155 32.3698 17.1675C32.3698 16.3195 31.6818 15.6315 30.8338 15.6315V15.632ZM17.4278 24.0001C17.4278 20.3701 20.3709 17.4269 24.0009 17.4267C27.6311 17.4267 30.5735 20.37 30.5735 24.0001C30.5735 27.6303 27.6314 30.5722 24.0012 30.5722C20.371 30.5722 17.4278 27.6303 17.4278 24.0001Z" fill="black"/>
        <path id="Shape" d="M24.0012 19.7334C26.3575 19.7334 28.2679 21.6436 28.2679 24.0001C28.2679 26.3564 26.3575 28.2669 24.0012 28.2669C21.6446 28.2669 19.7345 26.3564 19.7345 24.0001C19.7345 21.6436 21.6446 19.7334 24.0012 19.7334Z" fill="black"/>
    </g>

    <g id="pinterest">
        <path d="M24.0197 0C10.7545 0 0 10.7368 0 23.9803C0 34.1447 6.32618 42.8289 15.2619 46.3224C15.0444 44.4276 14.8665 41.5066 15.341 39.4342C15.7759 37.5592 18.1482 27.5132 18.1482 27.5132C18.1482 27.5132 17.4365 26.0724 17.4365 23.9605C17.4365 20.625 19.3739 18.1382 21.7858 18.1382C23.8418 18.1382 24.8303 19.6776 24.8303 21.5132C24.8303 23.5658 23.5255 26.6447 22.8336 29.5066C22.2602 31.8947 24.0395 33.8487 26.392 33.8487C30.6622 33.8487 33.9439 29.3487 33.9439 22.875C33.9439 17.1316 29.8121 13.125 23.9011 13.125C17.0609 13.125 13.0477 18.2368 13.0477 23.5263C13.0477 25.5789 13.8385 27.7895 14.827 28.9934C15.0247 29.2303 15.0444 29.4474 14.9851 29.6842C14.8072 30.4342 14.3921 32.0724 14.313 32.4079C14.2141 32.8421 13.9571 32.9408 13.5024 32.7237C10.4975 31.3224 8.61942 26.9605 8.61942 23.4276C8.61942 15.8684 14.1153 8.92105 24.4942 8.92105C32.8171 8.92105 39.3014 14.8421 39.3014 22.7763C39.3014 31.0461 34.0823 37.6974 26.8467 37.6974C24.4151 37.6974 22.1219 36.4342 21.3509 34.9342C21.3509 34.9342 20.1449 39.5132 19.8484 40.6382C19.3146 42.7303 17.8517 45.3355 16.8632 46.9342C19.1169 47.625 21.4892 48 23.9802 48C37.2454 48 47.9999 37.2632 47.9999 24.0197C48.0394 10.7368 37.2849 0 24.0197 0Z" fill="black"/>
    </g>
    <g id="picasa">
        <path id="Combined-Shape" fill-rule="evenodd" clip-rule="evenodd" d="M0 24C0 37.2548 10.7452 48 24 48C37.2548 48 48 37.2548 48 24C48 10.7452 37.2548 0 24 0C10.7452 0 0 10.7452 0 24ZM9.6 23.9999C9.6 16.0473 16.0473 9.6 23.9999 9.6C31.9527 9.6 38.4 16.0473 38.4 23.9999C38.4 31.9527 31.9527 38.4 23.9999 38.4C16.0473 38.4 9.6 31.9527 9.6 23.9999Z" fill="black"/>
        <path id="Fill-13" d="M24.078 18.3947L26.746 20.3499L29.414 22.3141L28.3798 25.4685L27.337 28.6059L24.026 28.597L20.715 28.5798L19.6981 25.4251L18.6989 22.2704L21.3841 20.3238L24.078 18.3947Z" fill="black"/>
        <path id="Fill-14" d="M22.5238 29.6C21.7973 29.6 21.4158 30.0771 21.688 30.8251L23.562 35.9835C23.7537 35.9917 23.9485 36 24.1424 36C28.962 36 33.14 33.4 35.2 29.6H22.5238Z" fill="black"/>
        <path id="Fill-16" d="M28.866 26.8318C28.6468 27.4985 28.9807 28.0046 29.7671 28L35.189 27.9713C35.2547 27.7982 35.3212 27.622 35.3798 27.444C36.8343 23.0215 35.647 18.3359 32.6913 15.2L28.866 26.8318Z" fill="black"/>
        <path id="Fill-17" d="M17.8752 23.8794C17.6619 23.1847 17.0879 22.9741 16.4438 23.4764L12 26.9361C12.0483 27.1221 12.0976 27.3112 12.1545 27.4966C13.5708 32.105 17.3157 35.2589 21.6 36L17.8752 23.8794Z" fill="black"/>
        <path id="Fill-18" d="M21.9889 18.2277C22.5514 17.8053 22.555 17.1925 21.8859 16.7378L17.275 13.6C17.1213 13.7046 16.9652 13.8111 16.8151 13.9239C13.082 16.7269 11.4384 21.2874 12.1701 25.6L21.9889 18.2277Z" fill="black"/>
        <path id="Fill-19" d="M28.2163 20.5817C28.779 20.9984 29.3573 20.8192 29.5903 20.039L31.2 14.661C31.0564 14.5441 30.9104 14.4254 30.7604 14.314C27.0281 11.5495 22.25 11.3222 18.4 13.3105L28.2163 20.5817Z" fill="black"/>
    </g>
    <g id="youtube">
        <path id="Combined-Shape" fill-rule="evenodd" clip-rule="evenodd" d="M24 0C10.7452 0 0 10.7452 0 24C0 37.2548 10.7452 48 24 48C37.2548 48 48 37.2548 48 24C48 10.7452 37.2548 0 24 0ZM34.0016 15.7493C35.1031 16.0516 35.9706 16.9422 36.265 18.0732C36.8 20.123 36.8 24.4 36.8 24.4C36.8 24.4 36.8 28.6768 36.265 30.7268C35.9706 31.8578 35.1031 32.7484 34.0016 33.0508C32.0054 33.6 24 33.6 24 33.6C24 33.6 15.9946 33.6 13.9983 33.0508C12.8967 32.7484 12.0292 31.8578 11.7348 30.7268C11.2 28.6768 11.2 24.4 11.2 24.4C11.2 24.4 11.2 20.123 11.7348 18.0732C12.0292 16.9422 12.8967 16.0516 13.9983 15.7493C15.9946 15.2 24 15.2 24 15.2C24 15.2 32.0054 15.2 34.0016 15.7493Z" fill="black"/>
        <path id="Fill-2" d="M21.6 28.8V20.8L28 24.8001L21.6 28.8Z" fill="black"/>
    </g>
</svg>